<svg viewBox="0 0 96 96" xmlns="http://www.w3.org/2000/svg" xmlns:xlink="http://www.w3.org/1999/xlink" id="Icons_DirectorsChair" overflow="hidden"><style>
.MsftOfcThm_Background1_Fill_v2 {
 fill:#FFFFFF; 
}
</style>
<g id="Icons"><path d="M82 49.064 82 35 85.108 35C86.1126 35.0222 86.9886 34.3211 87.187 33.336 87.3726 32.2471 86.6403 31.214 85.5514 31.0284 85.4403 31.0095 85.3277 31 85.215 31L73 31 73 6.107C73.0223 5.10217 72.3212 4.22583 71.336 4.027 70.2471 3.84143 69.214 4.5737 69.0284 5.66257 69.0094 5.77404 68.9999 5.88692 69 6L69 9 27 9 27 6.107C27.0223 5.10217 26.3212 4.22583 25.336 4.027 24.2471 3.84143 23.214 4.5737 23.0284 5.66257 23.0094 5.77404 22.9999 5.88692 23 6L23 31 16.126 31C16.083 31 16.043 30.987 16 30.987 15.957 30.987 15.917 30.997 15.874 31L10.892 31C9.8874 30.9778 9.0114 31.6789 8.813 32.664 8.62743 33.7529 9.3597 34.786 10.4486 34.9716 10.5597 34.9905 10.6723 35 10.785 35L14 35 14 49.064C13.9999 49.6643 14.1439 50.2559 14.42 50.789L14.434 50.816C14.7164 51.3614 15.1285 51.8292 15.634 52.178L44.477 72.069 20.953 88.292C20.0876 88.8629 19.7764 89.9849 20.224 90.92 20.7321 91.9008 21.939 92.284 22.9198 91.7759 22.9945 91.7372 23.0667 91.6938 23.136 91.646L48 74.5 72.864 91.646C73.773 92.2735 75.0186 92.0452 75.6461 91.1362 75.6939 91.0669 75.7373 90.9947 75.776 90.92 76.2236 89.9849 75.9124 88.8629 75.047 88.292L51.523 72.069 80.365 52.178C80.8705 51.8292 81.2826 51.3614 81.565 50.816L81.579 50.789C81.8554 50.256 81.9998 49.6644 82 49.064ZM69 33 69 40.289C55.3893 44.9477 40.6174 44.9583 27 40.319L27 33ZM23 35 23 41.9 18 46.9 18 35ZM28.171 55.964C28.1663 55.9618 28.1643 55.9562 28.1665 55.9515 28.1687 55.9468 28.1743 55.9448 28.179 55.947 34.634 57.6448 41.2814 58.5009 47.956 58.494 54.6801 58.501 61.3764 57.632 67.876 55.909 67.8807 55.9068 67.8863 55.9088 67.8885 55.9135 67.8907 55.9182 67.8887 55.9238 67.884 55.926L48 69.639ZM78 46.986 73 41.986 73 35 78 35Z" class="MsftOfcThm_Background1_Fill_v2" stroke="none" stroke-width="1" stroke-linecap="butt" stroke-linejoin="miter" stroke-miterlimit="4" fill="#FFFFFF" fill-opacity="1"/></g></svg>