<svg viewBox="0 0 96 96" xmlns="http://www.w3.org/2000/svg" xmlns:xlink="http://www.w3.org/1999/xlink" id="Icons_Tongue" overflow="hidden"><style>
.MsftOfcThm_Background1_lumMod_95_Fill_v2 {
 fill:#F2F2F2; 
}
</style>
<path d="M84.07 17.62C82.7573 16.6091 80.8736 16.8538 79.8627 18.1665 79.8618 18.1677 79.8609 18.1688 79.86 18.17 77.17 21.67 58.9 24 48 24 37.1 24 18.83 21.67 16.14 18.17 15.1293 16.8556 13.2444 16.6093 11.93 17.62 10.6156 18.6307 10.3693 20.5156 11.38 21.83 14.3748 25.7813 17.9562 29.2514 22 32.12L22 53C22 67.3594 33.6406 79 48 79 62.3594 79 74 67.3594 74 53L74 32.12C78.0438 29.2514 81.6252 25.7813 84.62 21.83 85.6309 20.5173 85.3862 18.6336 84.0735 17.6227 84.0723 17.6218 84.0712 17.6209 84.07 17.62ZM48 73C36.9543 73 28 64.0457 28 53L28 28.33C33.6295 29.2019 39.3065 29.7329 45 29.92L45 58C45 59.6569 46.3431 61 48 61 49.6569 61 51 59.6569 51 58L51 29.92C56.6935 29.7329 62.3705 29.2019 68 28.33L68 53C68 64.0457 59.0457 73 48 73Z" class="MsftOfcThm_Background1_lumMod_95_Fill_v2" stroke="none" stroke-width="1" stroke-linecap="butt" stroke-linejoin="miter" stroke-miterlimit="4" fill="#F2F2F2" fill-opacity="0.7"/></svg>